<svg version="1.1" id="Layer_1" xmlns="http://www.w3.org/2000/svg" xmlns:xlink="http://www.w3.org/1999/xlink" x="0px" y="0px"
	 width="100%" viewBox="0 0 664 663" enable-background="new 0 0 664 663" xml:space="preserve">
<path fill="#000000" opacity="1.000000" stroke="none" 
	d="
M379.000000,664.000000 
	C252.666672,664.000000 126.833336,664.000000 1.000000,664.000000 
	C1.000000,443.000000 1.000000,222.000000 1.000000,1.000000 
	C222.333328,1.000000 443.666656,1.000000 665.000000,1.000000 
	C665.000000,222.000000 665.000000,443.000000 665.000000,664.000000 
	C569.833313,664.000000 474.666656,664.000000 379.000000,664.000000 
M248.500000,645.999634 
	C344.146820,645.999634 439.793671,646.015930 535.440430,645.951477 
	C540.227234,645.948242 545.088684,645.657288 549.787720,644.800354 
	C579.118408,639.451538 602.977966,624.800293 621.077209,601.235535 
	C636.258484,581.469971 644.064880,559.029053 644.046387,533.851135 
	C643.947388,398.878235 644.006897,263.905243 643.960144,128.932281 
	C643.958923,125.317513 643.563599,121.674355 643.028442,118.092804 
	C638.679993,88.990341 624.943542,65.241096 602.174744,46.643219 
	C581.675781,29.899380 558.015503,21.177656 531.761230,21.124411 
	C399.288300,20.855745 266.814392,20.929781 134.341293,21.150593 
	C124.849213,21.166414 115.136024,22.399288 105.913918,24.654255 
	C81.244781,30.686291 60.920597,43.880619 44.738258,63.638367 
	C27.559456,84.612732 19.206829,108.865143 19.143517,135.524551 
	C18.830498,267.330780 18.958311,399.138184 19.109476,530.944946 
	C19.118328,538.665222 20.157618,546.488159 21.638756,554.083618 
	C26.245779,577.709045 37.351875,597.808838 54.891430,614.482361 
	C76.287041,634.821411 101.478416,645.776794 131.023621,645.945251 
	C169.847931,646.166626 208.674438,645.999634 248.500000,645.999634 
z"/>
<path fill="#0D3B66" opacity="1.000000" stroke="none" 
	d="
M248.000000,645.999634 
	C208.674438,645.999634 169.847931,646.166626 131.023621,645.945251 
	C101.478416,645.776794 76.287041,634.821411 54.891430,614.482361 
	C37.351875,597.808838 26.245779,577.709045 21.638756,554.083618 
	C20.157618,546.488159 19.118328,538.665222 19.109476,530.944946 
	C18.958311,399.138184 18.830498,267.330780 19.143517,135.524551 
	C19.206829,108.865143 27.559456,84.612732 44.738258,63.638367 
	C60.920597,43.880619 81.244781,30.686291 105.913918,24.654255 
	C115.136024,22.399288 124.849213,21.166414 134.341293,21.150593 
	C266.814392,20.929781 399.288300,20.855745 531.761230,21.124411 
	C558.015503,21.177656 581.675781,29.899380 602.174744,46.643219 
	C624.943542,65.241096 638.679993,88.990341 643.028442,118.092804 
	C643.563599,121.674355 643.958923,125.317513 643.960144,128.932281 
	C644.006897,263.905243 643.947388,398.878235 644.046387,533.851135 
	C644.064880,559.029053 636.258484,581.469971 621.077209,601.235535 
	C602.977966,624.800293 579.118408,639.451538 549.787720,644.800354 
	C545.088684,645.657288 540.227234,645.948242 535.440430,645.951477 
	C439.793671,646.015930 344.146820,645.999634 248.000000,645.999634 
M125.897537,527.576904 
	C123.011108,527.589600 120.124672,527.602356 116.714798,527.241516 
	C116.093285,527.306091 115.471771,527.370728 113.972130,527.362244 
	C111.036453,527.407043 108.100769,527.451843 104.704559,527.216675 
	C104.388893,527.347351 104.073235,527.478027 102.894035,527.572388 
	C100.008736,527.587158 97.123436,527.601929 93.823021,527.271484 
	C93.494133,527.362061 93.165253,527.452576 91.949959,527.413208 
	C87.968323,527.413208 83.986687,527.413208 80.005051,527.413208 
	C79.927635,528.298645 79.850220,529.184021 79.772797,530.069458 
	C81.572777,530.433777 83.370361,531.100647 85.173119,531.114929 
	C101.154228,531.241455 117.136223,531.273193 133.117996,531.292114 
	C153.765869,531.316589 174.413788,531.306946 195.061676,531.301208 
	C197.188553,531.300659 199.793777,531.791443 198.736755,527.602478 
	C198.428345,527.553711 198.119919,527.504883 196.903229,527.360657 
	C173.990021,527.420776 151.076797,527.480896 127.714844,527.240906 
	C127.397057,527.366394 127.079262,527.491882 125.897537,527.576904 
M277.185852,239.600891 
	C277.466583,240.068054 277.747345,240.535217 277.480591,241.425262 
	C267.181976,262.384460 256.883362,283.343658 246.242661,304.998993 
	C248.769928,304.998993 250.536880,304.998932 252.303818,304.998932 
	C291.097504,304.998962 329.891205,305.018524 368.684814,304.958069 
	C371.464813,304.953735 374.285126,304.568787 377.016937,304.016022 
	C400.525299,299.259399 419.542938,278.839844 421.992828,256.488342 
	C425.621429,223.383224 406.197113,202.350571 386.757416,194.487335 
	C386.510040,193.995087 386.262665,193.502823 386.534180,192.565750 
	C396.881744,171.611923 407.229309,150.658096 417.643402,129.569565 
	C416.570496,129.281311 416.251770,129.120834 415.932922,129.120636 
	C375.810669,129.095871 335.682953,128.694031 295.568726,129.255203 
	C278.851410,129.489059 264.908203,137.072678 254.186249,150.208374 
	C244.037735,162.641525 241.070786,176.913681 241.883743,192.645279 
	C242.845520,211.256134 258.947021,233.217819 277.185852,239.600891 
M84.021812,356.123505 
	C85.651802,355.825104 87.272202,355.347015 88.913437,355.259521 
	C95.911766,354.886383 104.918434,356.925232 105.947815,364.050476 
	C106.938591,370.908417 110.472939,371.731140 115.973900,371.042023 
	C117.778725,370.815918 119.653389,370.843750 121.465172,371.040466 
	C125.133156,371.438782 126.568535,370.240021 126.126610,366.303253 
	C124.834785,354.795471 118.697449,346.806213 108.390488,342.260559 
	C97.418083,337.421417 85.936241,337.345886 74.816360,341.634186 
	C64.334137,345.676575 57.243202,353.087738 56.558559,364.941162 
	C55.914986,376.083496 61.287827,384.104431 70.839363,389.255707 
	C75.746048,391.901947 81.039429,393.849915 86.216660,395.970367 
	C91.241272,398.028381 96.404427,399.755768 101.388390,401.903046 
	C105.761391,403.787140 107.348076,407.547058 106.955566,412.101929 
	C106.565880,416.623962 103.701241,420.054535 99.600380,420.435944 
	C93.461342,421.006897 87.059967,420.766235 81.029083,419.567841 
	C78.368073,419.039062 75.950974,415.580872 74.150475,412.954071 
	C72.670296,410.794556 72.982666,406.696075 71.201538,405.632538 
	C68.963326,404.296173 65.401337,405.164978 62.410133,405.106598 
	C60.910862,405.077332 59.395901,405.236511 57.913673,405.075073 
	C54.607552,404.714905 53.479404,406.037231 53.718746,409.359589 
	C54.359959,418.260345 58.296562,425.305542 65.532837,430.318298 
	C77.948120,438.918549 91.669609,440.018555 105.870262,436.189880 
	C116.562088,433.307190 124.167007,426.963654 125.922951,415.358398 
	C127.871849,402.477844 122.719574,392.934357 111.527657,386.710999 
	C107.350060,384.388000 102.775795,382.749695 98.310783,380.979858 
	C93.230522,378.966187 87.981850,377.358490 82.972923,375.189697 
	C79.051865,373.491943 75.769165,370.960175 75.880928,365.937256 
	C75.993233,360.889740 78.920357,358.120453 84.021812,356.123505 
M244.886200,364.173798 
	C236.087311,367.077393 229.077911,371.978699 226.356277,381.360199 
	C224.879395,386.451080 225.951309,387.762573 231.103745,387.827820 
	C233.935913,387.863647 236.771545,387.757782 239.600739,387.856110 
	C242.423401,387.954193 244.148880,387.213654 244.985886,384.050262 
	C246.050140,380.028046 250.848862,377.550415 255.813828,378.048889 
	C260.372162,378.506470 263.997650,380.276917 265.243652,385.339355 
	C266.217590,389.296509 265.577881,390.976654 260.917603,391.210022 
	C253.848618,391.564026 246.553589,391.996796 239.850128,394.029907 
	C228.540405,397.460052 222.645660,407.956696 224.570740,418.841980 
	C226.594955,430.287842 235.865982,438.374298 247.690781,437.837036 
	C254.062729,437.547577 260.356110,435.529694 265.539062,434.515778 
	C268.663483,435.472137 271.124481,436.597198 273.685455,436.914062 
	C276.803558,437.299805 280.008362,436.925079 283.170990,437.026306 
	C286.786377,437.142029 287.373260,435.542816 286.467133,432.330475 
	C285.574066,429.164429 284.783569,425.863739 284.680908,422.599060 
	C284.277863,409.783752 284.347687,396.952423 283.867432,384.141113 
	C283.617645,377.478149 280.352356,372.085236 274.857849,368.222565 
	C265.862183,361.898560 255.944321,361.723572 244.886200,364.173798 
M205.028305,421.201660 
	C202.260651,418.629822 199.492996,416.057983 196.515762,413.291382 
	C189.004333,421.282196 180.643921,425.033264 170.468781,419.877960 
	C165.376495,417.297943 162.895203,412.181427 163.636353,407.240692 
	C164.557800,407.165680 165.530640,407.018860 166.503677,407.017578 
	C178.651215,407.001648 190.801483,406.862549 202.944717,407.091644 
	C206.752426,407.163452 208.084885,405.866730 207.733368,402.234802 
	C207.381607,398.600098 207.249481,394.944611 206.930084,391.306244 
	C205.657562,376.810608 196.932907,366.216919 183.991547,363.396606 
	C169.865631,360.318146 156.220825,366.186432 149.017502,378.519165 
	C142.814972,389.138458 141.984741,400.670593 144.623337,412.279572 
	C149.217438,432.492065 166.049789,440.209808 184.681168,437.726379 
	C192.172958,436.727783 198.915756,433.255493 203.838531,427.238464 
	C204.963303,425.863678 204.958282,423.564606 205.028305,421.201660 
M385.919281,382.499756 
	C382.080688,391.004761 382.010010,399.932434 383.104218,408.942841 
	C384.715088,422.207489 394.273193,433.769409 406.074951,436.935425 
	C420.459167,440.794250 434.536560,436.516632 442.706757,425.604340 
	C449.007965,417.188232 450.247406,407.459961 449.973236,397.245850 
	C449.527679,380.648163 439.654572,367.201294 424.654266,363.686768 
	C411.150513,360.522827 394.123901,364.256348 385.919281,382.499756 
M511.803314,430.398193 
	C511.911469,432.488190 512.019592,434.578186 512.125549,436.625488 
	C518.410339,436.625488 524.125977,436.625488 529.878174,436.625488 
	C530.114502,435.463837 530.426697,434.655914 530.420837,433.850311 
	C530.302429,417.543732 530.591064,401.217865 529.872620,384.936676 
	C529.183533,369.322601 519.088257,361.111206 503.546112,363.086578 
	C498.454163,363.733795 493.580170,366.095581 488.298096,367.771057 
	C488.215363,363.903168 485.302948,363.872437 482.153900,364.043579 
	C479.830292,364.169830 477.475006,364.258881 475.168213,364.025116 
	C471.383179,363.641510 469.884521,364.764954 469.936371,368.942810 
	C470.161560,387.084320 470.032623,405.230164 470.032501,423.374451 
	C470.032410,437.178406 470.033539,437.014374 483.847260,437.105042 
	C487.982330,437.132202 488.921509,435.644226 488.876160,431.861115 
	C488.708588,417.880371 488.726654,403.895416 488.897919,389.914734 
	C488.924011,387.787079 489.601562,385.256256 490.887970,383.633514 
	C494.511627,379.062653 500.531891,377.954803 506.170685,379.904236 
	C511.735474,381.828125 511.667114,386.575592 511.733093,390.966431 
	C511.925659,403.781036 511.802490,416.600433 511.803314,430.398193 
M359.791016,388.287262 
	C363.114349,388.624451 364.630432,387.662231 364.154327,383.822144 
	C363.435394,378.023102 360.920349,373.383698 356.563904,369.706848 
	C345.304382,360.203827 325.274200,360.302002 313.994263,369.835663 
	C303.561096,378.653748 304.488495,394.525116 316.169098,401.569550 
	C320.189362,403.994110 324.874542,405.382690 329.357635,406.954590 
	C333.833832,408.524109 338.571838,409.402832 342.944031,411.196289 
	C346.677338,412.727722 347.368774,417.010742 344.887177,419.833069 
	C340.198578,425.165405 325.889069,423.784210 324.087860,417.101013 
	C322.353638,410.666321 318.478607,411.405792 314.071198,411.414337 
	C303.344116,411.435059 301.951782,413.812897 307.050568,423.526031 
	C307.511078,424.403259 308.045959,425.250275 308.623657,426.055817 
	C318.431732,439.732819 343.612823,442.587769 356.988647,431.549286 
	C368.974701,421.657776 367.398895,404.887543 353.576874,397.744202 
	C349.500000,395.637207 344.892761,394.529053 340.484528,393.098816 
	C336.548309,391.821686 332.427826,391.033722 328.615845,389.474426 
	C324.785431,387.907593 324.022125,384.410187 326.303802,381.344238 
	C330.239441,376.055786 342.778107,376.990234 344.609650,383.263184 
	C346.115326,388.420044 348.927429,388.604858 352.935455,388.312897 
	C354.924042,388.168030 356.931885,388.287659 359.791016,388.287262 
M571.624878,437.032959 
	C582.010010,439.193054 592.046204,438.671722 601.172913,432.662201 
	C614.104980,424.147064 613.802979,406.052063 600.389038,398.413727 
	C596.008301,395.919159 590.861938,394.739899 586.020020,393.093353 
	C581.947510,391.708405 577.639282,390.893341 573.747498,389.135162 
	C569.946350,387.417969 569.732971,383.376190 572.781128,380.560760 
	C578.442993,375.331177 588.743652,378.011353 591.151489,385.229492 
	C591.536865,386.384735 592.788269,388.046631 593.711792,388.095184 
	C598.967224,388.371399 604.244751,388.229095 609.634216,388.229095 
	C610.445557,381.548676 608.445496,376.434204 604.538574,372.059601 
	C593.565247,359.772491 570.229919,359.330414 558.481262,371.101654 
	C548.856262,380.745148 550.560059,395.133911 562.431580,401.911346 
	C566.362854,404.155731 570.849609,405.482788 575.170654,406.973419 
	C579.509338,408.470093 584.106201,409.295990 588.315674,411.067413 
	C592.288269,412.739166 593.159729,416.703552 590.845825,419.652344 
	C586.343262,425.390320 571.200806,423.606049 569.303955,416.676147 
	C568.009460,411.946960 565.740967,410.963715 561.583740,411.382904 
	C559.440430,411.599030 557.257080,411.396057 555.092407,411.426086 
	C549.997681,411.496735 549.252441,412.410034 550.430786,417.417267 
	C552.993347,428.306183 560.527527,434.071503 571.624878,437.032959 
M525.499512,531.374878 
	C543.479614,531.374817 561.459961,531.419189 579.439148,531.290771 
	C580.883850,531.280457 582.320007,530.079773 583.760071,529.432251 
	C582.347351,528.711670 580.941833,527.382080 579.520813,527.365295 
	C566.037598,527.206238 552.551758,527.270081 539.066711,527.270081 
	C515.759155,527.270142 492.451630,527.274902 469.144104,527.264160 
	C466.524445,527.262939 463.816986,527.093323 465.576752,531.374878 
	C485.229187,531.374878 504.864319,531.374878 525.499512,531.374878 
M318.593750,522.515686 
	C318.593750,531.500000 318.593750,540.484375 318.593750,549.742188 
	C320.098053,549.742188 321.312744,549.742188 323.100952,549.742188 
	C323.100952,544.166992 323.100952,538.763794 323.100952,533.447632 
	C333.345825,532.312378 333.353271,532.308289 337.881592,540.596558 
	C339.073029,542.777283 339.927246,545.211487 341.449158,547.120361 
	C342.637421,548.610657 344.619843,549.467712 346.249390,550.606201 
	C346.560852,550.156982 346.872345,549.707764 347.183838,549.258545 
	C344.180756,543.746460 341.177673,538.234436 338.125061,532.631470 
	C339.707581,531.330505 341.153381,530.252441 342.471893,529.036438 
	C345.882904,525.890747 346.576599,521.898682 345.605713,517.589722 
	C344.589355,513.079041 341.547760,509.940521 337.121979,509.512695 
	C331.115845,508.932098 325.011444,509.368164 318.593781,509.368164 
	C318.593781,513.562500 318.593781,517.542908 318.593750,522.515686 
M288.805023,512.672485 
	C278.271362,504.371185 265.762390,507.729828 262.833344,520.480591 
	C261.414307,526.657959 262.036865,533.667419 263.285156,539.994385 
	C264.589325,546.604370 271.281799,550.805603 277.666382,550.885681 
	C283.956818,550.964600 289.979095,547.185303 292.125336,540.719727 
	C295.262604,531.268799 295.545990,521.839294 288.805023,512.672485 
M431.561218,550.047058 
	C437.298126,550.047058 443.035034,550.047058 448.771942,550.047058 
	C448.848602,549.328674 448.925262,548.610291 449.001923,547.891907 
	C442.634369,543.991150 434.828003,547.923584 428.062317,545.590942 
	C428.062317,540.784119 428.062317,536.054443 428.062317,530.880127 
	C431.675568,530.880127 435.012238,531.187988 438.260010,530.782898 
	C440.870270,530.457336 444.972443,532.854248 446.170105,527.006226 
	C442.956177,527.006226 440.330719,527.051147 437.707275,526.998413 
	C426.230011,526.767578 427.998596,529.034363 427.675568,516.966492 
	C427.583527,513.527222 428.617188,512.142761 432.180817,512.323853 
	C436.834839,512.560364 441.513611,512.461365 446.173431,512.285706 
	C446.963043,512.256042 447.710785,511.114868 448.477875,510.487213 
	C447.797607,509.941406 447.124237,508.931152 446.436005,508.920959 
	C438.804993,508.807861 431.171692,508.849762 423.413025,508.849762 
	C423.413025,522.802002 423.413025,536.220764 423.413025,550.047058 
	C425.988312,550.047058 428.286835,550.047058 431.561218,550.047058 
M370.146393,517.872375 
	C369.756866,524.115601 368.730560,530.400757 369.138123,536.591492 
	C369.654175,544.429993 375.082092,549.448914 382.785461,550.765869 
	C391.185547,552.201904 399.314880,545.427002 398.403961,536.161682 
	C396.691956,537.930969 395.135132,538.836243 394.686279,540.126770 
	C392.835205,545.448792 388.778259,547.134399 383.764252,546.958496 
	C378.736572,546.782043 374.817871,543.963989 374.106873,539.122131 
	C373.230316,533.152466 372.986053,526.889221 373.789398,520.930969 
	C374.567596,515.159119 378.588715,512.381287 383.616486,512.032349 
	C389.082855,511.653015 392.861359,513.704529 394.823578,519.076233 
	C395.251038,520.246460 397.000366,520.933777 398.140869,521.843445 
	C398.665985,521.397461 399.191101,520.951416 399.716217,520.505432 
	C398.359619,517.828674 397.475708,514.737305 395.558929,512.551941 
	C389.519958,505.666901 375.505707,506.354401 370.146393,517.872375 
M237.691895,508.848358 
	C230.298569,508.848358 222.905258,508.848358 215.225311,508.848358 
	C215.225311,522.071106 215.286148,534.519592 215.189316,546.966858 
	C215.159164,550.843140 217.164795,550.198120 219.787979,549.619141 
	C219.787979,546.830444 219.787979,544.353638 219.787994,541.876831 
	C219.788055,531.301819 219.789642,531.399048 230.211502,531.226624 
	C232.543762,531.188110 234.860397,530.206177 237.184219,529.658508 
	C234.928055,529.032104 232.688675,527.938721 230.412918,527.856750 
	C217.824585,527.403748 220.084122,530.025391 219.746033,516.443054 
	C219.671219,513.436890 220.705032,512.238708 223.744034,512.343140 
	C228.224960,512.497192 232.716354,512.435913 237.201248,512.354126 
	C240.264481,512.298279 241.236115,511.250916 237.691895,508.848358 
z"/>
<path fill="#9FBAC9" opacity="1.000000" stroke="none" 
	d="
M387.012207,194.980682 
	C406.197113,202.350571 425.621429,223.383224 421.992828,256.488342 
	C419.542938,278.839844 400.525299,299.259399 377.016937,304.016022 
	C374.285126,304.568787 371.464813,304.953735 368.684814,304.958069 
	C329.891205,305.018524 291.097504,304.998962 252.303818,304.998932 
	C250.536880,304.998932 248.769928,304.998993 246.242661,304.998993 
	C256.883362,283.343658 267.181976,262.384460 278.131104,241.282364 
	C283.145020,242.132812 287.497345,243.924530 291.873718,243.985321 
	C314.322601,244.297180 336.778229,244.231537 359.229523,244.051071 
	C360.944794,244.037292 363.456390,242.523315 364.226288,241.009232 
	C371.985779,225.749863 379.458710,210.344803 387.012207,194.980682 
z"/>
<path fill="#9FAEB9" opacity="1.000000" stroke="none" 
	d="
M276.887756,239.113342 
	C258.947021,233.217819 242.845520,211.256134 241.883743,192.645279 
	C241.070786,176.913681 244.037735,162.641525 254.186249,150.208374 
	C264.908203,137.072678 278.851410,129.489059 295.568726,129.255203 
	C335.682953,128.694031 375.810669,129.095871 415.932922,129.120636 
	C416.251770,129.120834 416.570496,129.281311 417.643402,129.569565 
	C407.229309,150.658096 396.881744,171.611923 385.893707,192.745758 
	C377.424774,191.707794 369.620392,189.668518 361.762939,189.437927 
	C343.833496,188.911743 325.876526,189.397217 307.934174,189.184814 
	C303.326904,189.130295 300.665527,190.619629 298.648499,194.859665 
	C291.587646,209.702576 284.169922,224.375717 276.887756,239.113342 
z"/>
<path fill="#FDFDFE" opacity="1.000000" stroke="none" 
	d="
M277.036804,239.357117 
	C284.169922,224.375717 291.587646,209.702576 298.648499,194.859665 
	C300.665527,190.619629 303.326904,189.130295 307.934174,189.184814 
	C325.876526,189.397217 343.833496,188.911743 361.762939,189.437927 
	C369.620392,189.668518 377.424774,191.707794 385.634277,192.968170 
	C386.262665,193.502823 386.510040,193.995087 386.884827,194.734009 
	C379.458710,210.344803 371.985779,225.749863 364.226288,241.009232 
	C363.456390,242.523315 360.944794,244.037292 359.229523,244.051071 
	C336.778229,244.231537 314.322601,244.297180 291.873718,243.985321 
	C287.497345,243.924530 283.145020,242.132812 278.404846,241.070923 
	C277.747345,240.535217 277.466583,240.068054 277.036804,239.357117 
z"/>
<path fill="#FCFCFD" opacity="1.000000" stroke="none" 
	d="
M83.650223,356.271484 
	C78.920357,358.120453 75.993233,360.889740 75.880928,365.937256 
	C75.769165,370.960175 79.051865,373.491943 82.972923,375.189697 
	C87.981850,377.358490 93.230522,378.966187 98.310783,380.979858 
	C102.775795,382.749695 107.350060,384.388000 111.527657,386.710999 
	C122.719574,392.934357 127.871849,402.477844 125.922951,415.358398 
	C124.167007,426.963654 116.562088,433.307190 105.870262,436.189880 
	C91.669609,440.018555 77.948120,438.918549 65.532837,430.318298 
	C58.296562,425.305542 54.359959,418.260345 53.718746,409.359589 
	C53.479404,406.037231 54.607552,404.714905 57.913673,405.075073 
	C59.395901,405.236511 60.910862,405.077332 62.410133,405.106598 
	C65.401337,405.164978 68.963326,404.296173 71.201538,405.632538 
	C72.982666,406.696075 72.670296,410.794556 74.150475,412.954071 
	C75.950974,415.580872 78.368073,419.039062 81.029083,419.567841 
	C87.059967,420.766235 93.461342,421.006897 99.600380,420.435944 
	C103.701241,420.054535 106.565880,416.623962 106.955566,412.101929 
	C107.348076,407.547058 105.761391,403.787140 101.388390,401.903046 
	C96.404427,399.755768 91.241272,398.028381 86.216660,395.970367 
	C81.039429,393.849915 75.746048,391.901947 70.839363,389.255707 
	C61.287827,384.104431 55.914986,376.083496 56.558559,364.941162 
	C57.243202,353.087738 64.334137,345.676575 74.816360,341.634186 
	C85.936241,337.345886 97.418083,337.421417 108.390488,342.260559 
	C118.697449,346.806213 124.834785,354.795471 126.126610,366.303253 
	C126.568535,370.240021 125.133156,371.438782 121.465172,371.040466 
	C119.653389,370.843750 117.778725,370.815918 115.973900,371.042023 
	C110.472939,371.731140 106.938591,370.908417 105.947815,364.050476 
	C104.918434,356.925232 95.911766,354.886383 88.913437,355.259521 
	C87.272202,355.347015 85.651802,355.825104 83.650223,356.271484 
z"/>
<path fill="#FCFCFD" opacity="1.000000" stroke="none" 
	d="
M245.287460,364.108032 
	C255.944321,361.723572 265.862183,361.898560 274.857849,368.222565 
	C280.352356,372.085236 283.617645,377.478149 283.867432,384.141113 
	C284.347687,396.952423 284.277863,409.783752 284.680908,422.599060 
	C284.783569,425.863739 285.574066,429.164429 286.467133,432.330475 
	C287.373260,435.542816 286.786377,437.142029 283.170990,437.026306 
	C280.008362,436.925079 276.803558,437.299805 273.685455,436.914062 
	C271.124481,436.597198 268.663483,435.472137 265.539062,434.515778 
	C260.356110,435.529694 254.062729,437.547577 247.690781,437.837036 
	C235.865982,438.374298 226.594955,430.287842 224.570740,418.841980 
	C222.645660,407.956696 228.540405,397.460052 239.850128,394.029907 
	C246.553589,391.996796 253.848618,391.564026 260.917603,391.210022 
	C265.577881,390.976654 266.217590,389.296509 265.243652,385.339355 
	C263.997650,380.276917 260.372162,378.506470 255.813828,378.048889 
	C250.848862,377.550415 246.050140,380.028046 244.985886,384.050262 
	C244.148880,387.213654 242.423401,387.954193 239.600739,387.856110 
	C236.771545,387.757782 233.935913,387.863647 231.103745,387.827820 
	C225.951309,387.762573 224.879395,386.451080 226.356277,381.360199 
	C229.077911,371.978699 236.087311,367.077393 245.287460,364.108032 
M265.756897,409.542908 
	C264.834229,407.741547 263.777557,404.333282 263.010437,404.397247 
	C257.662354,404.843231 252.060410,405.214935 247.151093,407.156281 
	C241.737640,409.296967 241.456833,417.213531 246.148529,420.300873 
	C250.662186,423.271027 255.318436,422.403564 259.891571,420.249329 
	C264.057190,418.287018 266.445374,415.259735 265.756897,409.542908 
z"/>
<path fill="#FCFCFC" opacity="1.000000" stroke="none" 
	d="
M205.250763,421.446289 
	C204.958282,423.564606 204.963303,425.863678 203.838531,427.238464 
	C198.915756,433.255493 192.172958,436.727783 184.681168,437.726379 
	C166.049789,440.209808 149.217438,432.492065 144.623337,412.279572 
	C141.984741,400.670593 142.814972,389.138458 149.017502,378.519165 
	C156.220825,366.186432 169.865631,360.318146 183.991547,363.396606 
	C196.932907,366.216919 205.657562,376.810608 206.930084,391.306244 
	C207.249481,394.944611 207.381607,398.600098 207.733368,402.234802 
	C208.084885,405.866730 206.752426,407.163452 202.944717,407.091644 
	C190.801483,406.862549 178.651215,407.001648 166.503677,407.017578 
	C165.530640,407.018860 164.557800,407.165680 163.636353,407.240692 
	C162.895203,412.181427 165.376495,417.297943 170.468781,419.877960 
	C180.643921,425.033264 189.004333,421.282196 196.515762,413.291382 
	C199.492996,416.057983 202.260651,418.629822 205.250763,421.446289 
M187.214401,385.444153 
	C183.690857,379.766052 179.215347,377.747070 173.104614,379.079010 
	C168.077011,380.174866 164.367523,384.963654 163.530151,391.730225 
	C171.844879,391.730225 180.115555,391.730225 189.000092,391.730225 
	C188.451782,389.515076 188.028976,387.807007 187.214401,385.444153 
z"/>
<path fill="#FCFCFD" opacity="1.000000" stroke="none" 
	d="
M386.011963,382.128601 
	C394.123901,364.256348 411.150513,360.522827 424.654266,363.686768 
	C439.654572,367.201294 449.527679,380.648163 449.973236,397.245850 
	C450.247406,407.459961 449.007965,417.188232 442.706757,425.604340 
	C434.536560,436.516632 420.459167,440.794250 406.074951,436.935425 
	C394.273193,433.769409 384.715088,422.207489 383.104218,408.942841 
	C382.010010,399.932434 382.080688,391.004761 386.011963,382.128601 
M413.959137,422.049286 
	C420.325317,422.656708 425.721436,420.767120 428.443237,414.747345 
	C432.514404,405.743256 432.602173,396.334686 428.868134,387.205078 
	C426.347076,381.041168 421.388916,378.494934 414.474731,379.030212 
	C408.471313,379.494965 404.291504,383.170135 403.197571,388.622589 
	C401.918915,394.995819 401.622314,401.728455 402.033417,408.233521 
	C402.458313,414.956970 406.128662,420.040985 413.959137,422.049286 
z"/>
<path fill="#FCFDFD" opacity="1.000000" stroke="none" 
	d="
M511.803223,429.908081 
	C511.802490,416.600433 511.925659,403.781036 511.733093,390.966431 
	C511.667114,386.575592 511.735474,381.828125 506.170685,379.904236 
	C500.531891,377.954803 494.511627,379.062653 490.887970,383.633514 
	C489.601562,385.256256 488.924011,387.787079 488.897919,389.914734 
	C488.726654,403.895416 488.708588,417.880371 488.876160,431.861115 
	C488.921509,435.644226 487.982330,437.132202 483.847260,437.105042 
	C470.033539,437.014374 470.032410,437.178406 470.032501,423.374451 
	C470.032623,405.230164 470.161560,387.084320 469.936371,368.942810 
	C469.884521,364.764954 471.383179,363.641510 475.168213,364.025116 
	C477.475006,364.258881 479.830292,364.169830 482.153900,364.043579 
	C485.302948,363.872437 488.215363,363.903168 488.298096,367.771057 
	C493.580170,366.095581 498.454163,363.733795 503.546112,363.086578 
	C519.088257,361.111206 529.183533,369.322601 529.872620,384.936676 
	C530.591064,401.217865 530.302429,417.543732 530.420837,433.850311 
	C530.426697,434.655914 530.114502,435.463837 529.878174,436.625488 
	C524.125977,436.625488 518.410339,436.625488 512.125549,436.625488 
	C512.019592,434.578186 511.911469,432.488190 511.803223,429.908081 
z"/>
<path fill="#FBFCFC" opacity="1.000000" stroke="none" 
	d="
M359.361023,388.287445 
	C356.931885,388.287659 354.924042,388.168030 352.935455,388.312897 
	C348.927429,388.604858 346.115326,388.420044 344.609650,383.263184 
	C342.778107,376.990234 330.239441,376.055786 326.303802,381.344238 
	C324.022125,384.410187 324.785431,387.907593 328.615845,389.474426 
	C332.427826,391.033722 336.548309,391.821686 340.484528,393.098816 
	C344.892761,394.529053 349.500000,395.637207 353.576874,397.744202 
	C367.398895,404.887543 368.974701,421.657776 356.988647,431.549286 
	C343.612823,442.587769 318.431732,439.732819 308.623657,426.055817 
	C308.045959,425.250275 307.511078,424.403259 307.050568,423.526031 
	C301.951782,413.812897 303.344116,411.435059 314.071198,411.414337 
	C318.478607,411.405792 322.353638,410.666321 324.087860,417.101013 
	C325.889069,423.784210 340.198578,425.165405 344.887177,419.833069 
	C347.368774,417.010742 346.677338,412.727722 342.944031,411.196289 
	C338.571838,409.402832 333.833832,408.524109 329.357635,406.954590 
	C324.874542,405.382690 320.189362,403.994110 316.169098,401.569550 
	C304.488495,394.525116 303.561096,378.653748 313.994263,369.835663 
	C325.274200,360.302002 345.304382,360.203827 356.563904,369.706848 
	C360.920349,373.383698 363.435394,378.023102 364.154327,383.822144 
	C364.630432,387.662231 363.114349,388.624451 359.361023,388.287445 
z"/>
<path fill="#FBFCFC" opacity="1.000000" stroke="none" 
	d="
M571.200989,437.013275 
	C560.527527,434.071503 552.993347,428.306183 550.430786,417.417267 
	C549.252441,412.410034 549.997681,411.496735 555.092407,411.426086 
	C557.257080,411.396057 559.440430,411.599030 561.583740,411.382904 
	C565.740967,410.963715 568.009460,411.946960 569.303955,416.676147 
	C571.200806,423.606049 586.343262,425.390320 590.845825,419.652344 
	C593.159729,416.703552 592.288269,412.739166 588.315674,411.067413 
	C584.106201,409.295990 579.509338,408.470093 575.170654,406.973419 
	C570.849609,405.482788 566.362854,404.155731 562.431580,401.911346 
	C550.560059,395.133911 548.856262,380.745148 558.481262,371.101654 
	C570.229919,359.330414 593.565247,359.772491 604.538574,372.059601 
	C608.445496,376.434204 610.445557,381.548676 609.634216,388.229095 
	C604.244751,388.229095 598.967224,388.371399 593.711792,388.095184 
	C592.788269,388.046631 591.536865,386.384735 591.151489,385.229492 
	C588.743652,378.011353 578.442993,375.331177 572.781128,380.560760 
	C569.732971,383.376190 569.946350,387.417969 573.747498,389.135162 
	C577.639282,390.893341 581.947510,391.708405 586.020020,393.093353 
	C590.861938,394.739899 596.008301,395.919159 600.389038,398.413727 
	C613.802979,406.052063 614.104980,424.147064 601.172913,432.662201 
	C592.046204,438.671722 582.010010,439.193054 571.200989,437.013275 
z"/>
<path fill="#E7EAED" opacity="1.000000" stroke="none" 
	d="
M524.999512,531.374878 
	C504.864319,531.374878 485.229187,531.374878 465.576752,531.374878 
	C463.816986,527.093323 466.524445,527.262939 469.144104,527.264160 
	C492.451630,527.274902 515.759155,527.270142 539.066711,527.270081 
	C552.551758,527.270081 566.037598,527.206238 579.520813,527.365295 
	C580.941833,527.382080 582.347351,528.711670 583.760071,529.432251 
	C582.320007,530.079773 580.883850,531.280457 579.439148,531.290771 
	C561.459961,531.419189 543.479614,531.374817 524.999512,531.374878 
z"/>
<path fill="#F2F4F5" opacity="1.000000" stroke="none" 
	d="
M318.593750,522.019531 
	C318.593781,517.542908 318.593781,513.562500 318.593781,509.368164 
	C325.011444,509.368164 331.115845,508.932098 337.121979,509.512695 
	C341.547760,509.940521 344.589355,513.079041 345.605713,517.589722 
	C346.576599,521.898682 345.882904,525.890747 342.471893,529.036438 
	C341.153381,530.252441 339.707581,531.330505 338.125061,532.631470 
	C341.177673,538.234436 344.180756,543.746460 347.183838,549.258545 
	C346.872345,549.707764 346.560852,550.156982 346.249390,550.606201 
	C344.619843,549.467712 342.637421,548.610657 341.449158,547.120361 
	C339.927246,545.211487 339.073029,542.777283 337.881592,540.596558 
	C333.353271,532.308289 333.345825,532.312378 323.100952,533.447632 
	C323.100952,538.763794 323.100952,544.166992 323.100952,549.742188 
	C321.312744,549.742188 320.098053,549.742188 318.593750,549.742188 
	C318.593750,540.484375 318.593750,531.500000 318.593750,522.019531 
M322.882904,521.520142 
	C322.882904,523.945312 322.882904,526.370422 322.882904,529.069214 
	C327.178772,529.069214 330.833771,529.379761 334.412201,528.989075 
	C338.699982,528.520996 341.347443,525.779053 341.629181,521.425842 
	C341.874329,517.638184 340.298370,514.174805 336.478973,513.318359 
	C332.234619,512.366699 327.742676,512.519043 322.882904,512.155151 
	C322.882904,515.629517 322.882904,518.097473 322.882904,521.520142 
z"/>
<path fill="#EEF1F3" opacity="1.000000" stroke="none" 
	d="
M289.042572,512.951416 
	C295.545990,521.839294 295.262604,531.268799 292.125336,540.719727 
	C289.979095,547.185303 283.956818,550.964600 277.666382,550.885681 
	C271.281799,550.805603 264.589325,546.604370 263.285156,539.994385 
	C262.036865,533.667419 261.414307,526.657959 262.833344,520.480591 
	C265.762390,507.729828 278.271362,504.371185 289.042572,512.951416 
M265.923981,534.067505 
	C266.150269,535.198853 266.286072,536.357544 266.617767,537.457092 
	C268.545166,543.846619 272.704956,547.097473 278.427521,546.750488 
	C284.412079,546.387695 288.181732,543.207336 289.109100,536.339722 
	C289.762756,531.499023 289.685669,526.401794 288.945709,521.570557 
	C288.015015,515.494080 283.576172,512.137451 277.954590,512.032166 
	C272.694885,511.933685 268.244690,515.094482 266.917725,520.857239 
	C266.003448,524.827759 266.201630,529.054382 265.923981,534.067505 
z"/>
<path fill="#E9ECEF" opacity="1.000000" stroke="none" 
	d="
M431.073273,550.047058 
	C428.286835,550.047058 425.988312,550.047058 423.413025,550.047058 
	C423.413025,536.220764 423.413025,522.802002 423.413025,508.849762 
	C431.171692,508.849762 438.804993,508.807861 446.436005,508.920959 
	C447.124237,508.931152 447.797607,509.941406 448.477875,510.487213 
	C447.710785,511.114868 446.963043,512.256042 446.173431,512.285706 
	C441.513611,512.461365 436.834839,512.560364 432.180817,512.323853 
	C428.617188,512.142761 427.583527,513.527222 427.675568,516.966492 
	C427.998596,529.034363 426.230011,526.767578 437.707275,526.998413 
	C440.330719,527.051147 442.956177,527.006226 446.170105,527.006226 
	C444.972443,532.854248 440.870270,530.457336 438.260010,530.782898 
	C435.012238,531.187988 431.675568,530.880127 428.062317,530.880127 
	C428.062317,536.054443 428.062317,540.784119 428.062317,545.590942 
	C434.828003,547.923584 442.634369,543.991150 449.001923,547.891907 
	C448.925262,548.610291 448.848602,549.328674 448.771942,550.047058 
	C443.035034,550.047058 437.298126,550.047058 431.073273,550.047058 
z"/>
<path fill="#FAFAFA" opacity="1.000000" stroke="none" 
	d="
M128.163589,527.540955 
	C151.076797,527.480896 173.990021,527.420776 197.453812,527.606567 
	C198.251389,528.032898 198.527710,528.118591 198.833374,528.109497 
	C199.793777,531.791443 197.188553,531.300659 195.061676,531.301208 
	C174.413788,531.306946 153.765869,531.316589 133.117996,531.292114 
	C117.136223,531.273193 101.154228,531.241455 85.173119,531.114929 
	C83.370361,531.100647 81.572777,530.433777 79.772797,530.069458 
	C79.850220,529.184021 79.927635,528.298645 80.005051,527.413208 
	C83.986687,527.413208 87.968323,527.413208 92.599113,527.653198 
	C93.578224,527.800964 93.908188,527.708862 94.238144,527.616699 
	C97.123436,527.601929 100.008736,527.587158 103.555214,527.742676 
	C104.532631,527.774170 104.848869,527.635437 105.165100,527.496704 
	C108.100769,527.451843 111.036453,527.407043 114.666016,527.608093 
	C115.986008,527.774353 116.612129,527.694763 117.238251,527.615112 
	C120.124672,527.602356 123.011108,527.589600 126.554321,527.750122 
	C127.528595,527.795898 127.846092,527.668396 128.163589,527.540955 
z"/>
<path fill="#EDF0F2" opacity="1.000000" stroke="none" 
	d="
M370.331818,517.538086 
	C375.505707,506.354401 389.519958,505.666901 395.558929,512.551941 
	C397.475708,514.737305 398.359619,517.828674 399.716217,520.505432 
	C399.191101,520.951416 398.665985,521.397461 398.140869,521.843445 
	C397.000366,520.933777 395.251038,520.246460 394.823578,519.076233 
	C392.861359,513.704529 389.082855,511.653015 383.616486,512.032349 
	C378.588715,512.381287 374.567596,515.159119 373.789398,520.930969 
	C372.986053,526.889221 373.230316,533.152466 374.106873,539.122131 
	C374.817871,543.963989 378.736572,546.782043 383.764252,546.958496 
	C388.778259,547.134399 392.835205,545.448792 394.686279,540.126770 
	C395.135132,538.836243 396.691956,537.930969 398.403961,536.161682 
	C399.314880,545.427002 391.185547,552.201904 382.785461,550.765869 
	C375.082092,549.448914 369.654175,544.429993 369.138123,536.591492 
	C368.730560,530.400757 369.756866,524.115601 370.331818,517.538086 
z"/>
<path fill="#E9ECEF" opacity="1.000000" stroke="none" 
	d="
M238.115616,508.865662 
	C241.236115,511.250916 240.264481,512.298279 237.201248,512.354126 
	C232.716354,512.435913 228.224960,512.497192 223.744034,512.343140 
	C220.705032,512.238708 219.671219,513.436890 219.746033,516.443054 
	C220.084122,530.025391 217.824585,527.403748 230.412918,527.856750 
	C232.688675,527.938721 234.928055,529.032104 237.184219,529.658508 
	C234.860397,530.206177 232.543762,531.188110 230.211502,531.226624 
	C219.789642,531.399048 219.788055,531.301819 219.787994,541.876831 
	C219.787979,544.353638 219.787979,546.830444 219.787979,549.619141 
	C217.164795,550.198120 215.159164,550.843140 215.189316,546.966858 
	C215.286148,534.519592 215.225311,522.071106 215.225311,508.848358 
	C222.905258,508.848358 230.298569,508.848358 238.115616,508.865662 
z"/>
<path fill="#99A6B2" opacity="1.000000" stroke="none" 
	d="
M116.976524,527.428345 
	C116.612129,527.694763 115.986008,527.774353 115.105072,527.644653 
	C115.471771,527.370728 116.093285,527.306091 116.976524,527.428345 
z"/>
<path fill="#99A6B2" opacity="1.000000" stroke="none" 
	d="
M94.030579,527.444092 
	C93.908188,527.708862 93.578224,527.800964 93.042313,527.718140 
	C93.165253,527.452576 93.494133,527.362061 94.030579,527.444092 
z"/>
<path fill="#99A6B2" opacity="1.000000" stroke="none" 
	d="
M104.934830,527.356689 
	C104.848869,527.635437 104.532631,527.774170 103.986984,527.760864 
	C104.073235,527.478027 104.388893,527.347351 104.934830,527.356689 
z"/>
<path fill="#99A6B2" opacity="1.000000" stroke="none" 
	d="
M127.939217,527.390930 
	C127.846092,527.668396 127.528595,527.795898 126.986282,527.770386 
	C127.079262,527.491882 127.397057,527.366394 127.939217,527.390930 
z"/>
<path fill="#99A6B2" opacity="1.000000" stroke="none" 
	d="
M198.785065,527.855957 
	C198.527710,528.118591 198.251389,528.032898 197.907944,527.654297 
	C198.119919,527.504883 198.428345,527.553711 198.785065,527.855957 
z"/>
<path fill="#16416A" opacity="1.000000" stroke="none" 
	d="
M265.756836,409.972900 
	C266.445374,415.259735 264.057190,418.287018 259.891571,420.249329 
	C255.318436,422.403564 250.662186,423.271027 246.148529,420.300873 
	C241.456833,417.213531 241.737640,409.296967 247.151093,407.156281 
	C252.060410,405.214935 257.662354,404.843231 263.010437,404.397247 
	C263.777557,404.333282 264.834229,407.741547 265.756836,409.972900 
z"/>
<path fill="#103D67" opacity="1.000000" stroke="none" 
	d="
M187.410294,385.771545 
	C188.028976,387.807007 188.451782,389.515076 189.000092,391.730225 
	C180.115555,391.730225 171.844879,391.730225 163.530151,391.730225 
	C164.367523,384.963654 168.077011,380.174866 173.104614,379.079010 
	C179.215347,377.747070 183.690857,379.766052 187.410294,385.771545 
z"/>
<path fill="#103D67" opacity="1.000000" stroke="none" 
	d="
M413.547577,421.985504 
	C406.128662,420.040985 402.458313,414.956970 402.033417,408.233521 
	C401.622314,401.728455 401.918915,394.995819 403.197571,388.622589 
	C404.291504,383.170135 408.471313,379.494965 414.474731,379.030212 
	C421.388916,378.494934 426.347076,381.041168 428.868134,387.205078 
	C432.602173,396.334686 432.514404,405.743256 428.443237,414.747345 
	C425.721436,420.767120 420.325317,422.656708 413.547577,421.985504 
z"/>
<path fill="#144069" opacity="1.000000" stroke="none" 
	d="
M322.882904,521.042786 
	C322.882904,518.097473 322.882904,515.629517 322.882904,512.155151 
	C327.742676,512.519043 332.234619,512.366699 336.478973,513.318359 
	C340.298370,514.174805 341.874329,517.638184 341.629181,521.425842 
	C341.347443,525.779053 338.699982,528.520996 334.412201,528.989075 
	C330.833771,529.379761 327.178772,529.069214 322.882904,529.069214 
	C322.882904,526.370422 322.882904,523.945312 322.882904,521.042786 
z"/>
<path fill="#103D67" opacity="1.000000" stroke="none" 
	d="
M265.913300,533.617065 
	C266.201630,529.054382 266.003448,524.827759 266.917725,520.857239 
	C268.244690,515.094482 272.694885,511.933685 277.954590,512.032166 
	C283.576172,512.137451 288.015015,515.494080 288.945709,521.570557 
	C289.685669,526.401794 289.762756,531.499023 289.109100,536.339722 
	C288.181732,543.207336 284.412079,546.387695 278.427521,546.750488 
	C272.704956,547.097473 268.545166,543.846619 266.617767,537.457092 
	C266.286072,536.357544 266.150269,535.198853 265.913300,533.617065 
z"/>
</svg>